<?xml version="1.0" encoding="UTF-8" standalone="no"?>
<!-- Created with Inkscape (http://www.inkscape.org/) -->

<svg
   xmlns:dc="http://purl.org/dc/elements/1.1/"
   xmlns:cc="http://creativecommons.org/ns#"
   xmlns:rdf="http://www.w3.org/1999/02/22-rdf-syntax-ns#"
   xmlns:svg="http://www.w3.org/2000/svg"
   xmlns="http://www.w3.org/2000/svg"
   xmlns:sodipodi="http://sodipodi.sourceforge.net/DTD/sodipodi-0.dtd"
   xmlns:inkscape="http://www.inkscape.org/namespaces/inkscape"
   width="27"
   height="22.532"
   viewBox="0 0 27 22.532"
   id="svg4777"
   version="1.1"
   inkscape:version="0.91 r"
   sodipodi:docname="social_tw_small.svg">
  <defs
     id="defs4779" />
  <sodipodi:namedview
     id="base"
     pagecolor="#ffffff"
     bordercolor="#666666"
     borderopacity="1.0"
     inkscape:pageopacity="0.0"
     inkscape:pageshadow="2"
     inkscape:zoom="7.9195959"
     inkscape:cx="13.341761"
     inkscape:cy="4.6987674"
     inkscape:document-units="px"
     inkscape:current-layer="layer1"
     showgrid="false"
     units="px"
     inkscape:window-width="1366"
     inkscape:window-height="744"
     inkscape:window-x="0"
     inkscape:window-y="24"
     inkscape:window-maximized="1" />
  <metadata
     id="metadata4782">
    <rdf:RDF>
      <cc:Work
         rdf:about="">
        <dc:format>image/svg+xml</dc:format>
        <dc:type
           rdf:resource="http://purl.org/dc/dcmitype/StillImage" />
        <dc:title></dc:title>
      </cc:Work>
    </rdf:RDF>
  </metadata>
  <g
     inkscape:label="Layer 1"
     inkscape:groupmode="layer"
     id="layer1"
     transform="translate(0,-1029.8302)">
    <path
       style="opacity:1;fill:#ffffff;fill-opacity:1;stroke:none;stroke-width:1.70000005;stroke-linecap:round;stroke-miterlimit:4;stroke-dasharray:none;stroke-dashoffset:0;stroke-opacity:1"
       d="m 18.84009,1029.8293 c -0.377784,-0.01 -0.762984,0.029 -1.162944,0.104 -2.800836,0.5248 -4.871655,3.2921 -4.570182,6.1072 l 0.08181,0.7629 -0.468855,-0.065 c -4.2781227,-0.5912 -7.0588077,-1.9359 -10.0562507,-4.8631 l -1.129815,-1.1032 -0.135792,0.3557 c -0.93025805,2.4381 -0.55098905,4.761 1.070442,6.5557 0.261486,0.2894 0.398313,0.5353 0.332865,0.5988 -0.06417,0.062 -0.49581,-0.015 -1.021599,-0.183 -0.500769,-0.1598 -0.94872605,-0.267 -0.99535505,-0.2382 -0.09209,0.057 0.0054,0.6587 0.24591605,1.5265 0.417591,1.5037 1.50093,2.7795 3.073412,3.6194 l 0.915498,0.489 -1.041903,0.061 c -1.024175,0.06 -1.041473,0.067 -1.009721,0.3677 0.05337,0.507 0.904277,1.6183 1.698266,2.2179 0.631854,0.4772 1.20123,0.7587 2.906595,1.4375 0.17937,0.071 0.0441,0.1923 -0.674181,0.6022 -1.714068,0.9784 -3.339927,1.422 -5.771054,1.5741 -0.68848205,0.043 -1.16547305,0.1233 -1.12482905,0.1891 0.03879,0.063 0.45153,0.3059 0.917028,0.5403 2.03612405,1.0254 3.97712905,1.5994 5.96238505,1.7632 0.660987,0.055 1.229409,0.106 1.263114,0.1144 0.03366,0.01 0.71883,-0.04 1.522638,-0.1058 2.3060067,-0.191 4.1532027,-0.6951 6.0899397,-1.6621 3.598164,-1.7963 6.833187,-5.8331 7.949088,-9.9191 0.434691,-1.5915 0.741015,-3.2921 0.741015,-4.1144 0,-0.8802 0.138978,-1.1219 1.409247,-2.4494 1.393686,-1.4563 1.471167,-1.6803 0.460053,-1.3306 -0.935136,0.3232 -1.613565,0.4723 -1.677771,0.3684 -0.02871,-0.047 0.249498,-0.4607 0.618246,-0.9204 0.672372,-0.8385 1.219581,-1.7614 1.1097,-1.8713 -0.03222,-0.032 -0.435933,0.1043 -0.897102,0.3036 -0.461187,0.1993 -1.208421,0.4829 -1.660536,0.6305 l -0.822024,0.2682 -0.750978,-0.5099 c -1.196586,-0.8126 -2.262969,-1.2038 -3.39633,-1.2222 z"
       id="path4175"
       inkscape:connector-curvature="0" />
  </g>
</svg>
